<?xml version="1.0" encoding="utf-8"?>
<?xml-stylesheet type="text/xsl" href="rss1.xsl"?>
<rss version="2.0" xmlns:atom="http://www.w3.org/2005/Atom" xmlns:content="http://purl.org/rss/1.0/modules/content/" xmlns:dc="http://purl.org/dc/elements/1.1/" xmlns:media="http://search.yahoo.com/mrss/">
<channel>
 <title>Getty</title>
 <link>http://www.gettyimg.com/</link>
 <atom:link href="http://www.gettyimg.com/" rel="self" type="application/rss+xml" />

 
                <item>
                <title><![CDATA[【Cinema Center】MOVIE - Monster High: Welcome to Monster High (2016) 1080p BluRay x264 - ROVERS]]></title>
                <link><![CDATA[https://sharemania.us/threads/monster-high-welcome-to-monster-high-2016-1080p-bluray-x264-rovers.238562/]]></link>
                <description><![CDATA[<article>
<blockquote class="messageText SelectQuoteContainer ugc baseHtml">
<div style="text-align: center"><img src="https://www.yayomg.com/wp-content/uploads/2016/08/yayomg-welcome-to-monster-high-quiz.jpg" class="bbCodeImage LbImage" alt="[​IMG]" data-url="https://www.yayomg.com/wp-content/uploads/2016/08/yayomg-welcome-to-monster-high-quiz.jpg" style=""> <br>
<br>
When Dracula meets Frankie, they decide to create a school. But recruiting students always comes with its trials and tribulations.<br>
<br>
Download:<br>
<br>
<div class="bbCodeBlock bbCodeVfcHH HiddenContent">
<div class="attribution type">Hidden Content:</div>
<blockquote>You must either reply or click 'Like' to see the hidden information contained here.</blockquote>
</div></div>
<div class="messageTextEndMarker">&nbsp;</div>
</blockquote>
</article>]]></description>
                <author><![CDATA[sunnyillion]]></author>
                </item>

                
                <item>
                <title><![CDATA[【PRORES HD】Taylor Swift - Sparks Fly (USCJY1103872) [PRORES 1080p]]]></title>
                <link><![CDATA[https://sharemania.us/threads/taylor-swift-sparks-fly-uscjy1103872-prores-1080p.238560/]]></link>
                <description><![CDATA[<article>
<blockquote class="messageText SelectQuoteContainer ugc baseHtml">
<img src="https://i.imgur.com/lmwKRr0.png" class="bbCodeImage LbImage" alt="[​IMG]" data-url="https://i.imgur.com/lmwKRr0.png" style=""> <br>
<br>
<div class="ToggleTriggerAnchor bbCodeSpoilerContainer">
<button type="button" class="button bbCodeSpoilerButton ToggleTrigger Tooltip JsOnly" data-target="> .SpoilerTarget"><span>Spoiler: <span class="SpoilerTitle">MediaInfo</span></span></button>
<div class="SpoilerTarget bbCodeSpoilerText">General<br>
Format : MPEG-4<br>
Format profile : QuickTime<br>
Codec ID : qt 2005.03 (qt )<br>
File size : 5.41 GiB<br>
Duration : 4 min 35 s<br>
Overall bit rate mode : Variable<br>
Overall bit rate : 169 Mb/s<br>
Frame rate : 23.976 FPS<br>
Encoded date : 2018-08-02 16:34:16 UTC<br>
Tagged date : 2018-08-02 16:38:26 UTC<br>
Writing library : Apple QuickTime<br>
<br>
Video<br>
ID : 1<br>
Format : ProRes<br>
Format version : Version 0<br>
Format profile : 422 HQ<br>
Codec ID : apch<br>
Duration : 4 min 35 s<br>
Bit rate mode : Variable<br>
Bit rate : 166 Mb/s<br>
Width : 1 920 pixels<br>
Height : 1 080 pixels<br>
Display aspect ratio : 16:9<br>
Frame rate mode : Constant<br>
Frame rate : 23.976 (24000/1001) FPS<br>
Color space : YUV<br>
Chroma subsampling : 4:2:2<br>
Scan type : Progressive<br>
Bits/(Pixel*Frame) : 3.343<br>
Stream size : 5.33 GiB (99%)<br>
Writing library : arh0<br>
Language : English<br>
Encoded date : 2018-08-02 16:34:16 UTC<br>
Tagged date : 2018-08-02 16:38:26 UTC<br>
Color primaries : BT.709<br>
Transfer characteristics : BT.709<br>
Matrix coefficients : BT.709<br>
<br>
Audio<br>
ID : 2<br>
Format : PCM<br>
Format settings : Little / Signed<br>
Codec ID : in24<br>
Duration : 4 min 35 s<br>
Bit rate mode : Constant<br>
Bit rate : 2 304 kb/s<br>
Channel(s) : 2 channels<br>
Channel layout : L R<br>
Sampling rate : 48.0 kHz<br>
Bit depth : 24 bits<br>
Stream size : 75.7 MiB (1%)<br>
Language : English<br>
Encoded date : 2018-08-02 16:34:16 UTC<br>
Tagged date : 2018-08-02 16:38:27 UTC</div>
</div><br>
<div class="bbCodeBlock bbCodeVfcHH HiddenContent">
<div class="attribution type">Hidden Content:</div>
<blockquote>You must reply before you can see the hidden data contained here.</blockquote>
</div>
<div class="messageTextEndMarker">&nbsp;</div>
</blockquote>
</article>]]></description>
                <author><![CDATA[Lalynsantiago]]></author>
                </item>

                
                <item>
                <title><![CDATA[【UPSCALED】No Doubt - It's My Life [4K AI Upscale | HEVC 10-bit | PCM 16-bit 48 kHz]]]></title>
                <link><![CDATA[https://sharemania.us/threads/no-doubt-its-my-life-4k-ai-upscale-hevc-10-bit-pcm-16-bit-48-khz.238563/]]></link>
                <description><![CDATA[<article>
<blockquote class="messageText SelectQuoteContainer ugc baseHtml">
Thank you
<div class="messageTextEndMarker">&nbsp;</div>
</blockquote>
</article>]]></description>
                <author><![CDATA[ADHDerby]]></author>
                </item>

                
                <item>
                <title><![CDATA[【Actresses】Gloria Granja - Jesus (2016)1080p]]></title>
                <link><![CDATA[https://sharemania.us/threads/gloria-granja-jesus-2016-1080p.238561/]]></link>
                <description><![CDATA[<article>
<blockquote class="messageText SelectQuoteContainer ugc baseHtml">
Merciiiiiiiiiiiiiiiiiiiiiiiiii
<div class="messageTextEndMarker">&nbsp;</div>
</blockquote>
</article>]]></description>
                <author><![CDATA[piqeros]]></author>
                </item>

                </channel></rss>